# xmcd CD database file
#
# Track frame offsets:
#	150
#	21549
#	33531
#	50922
#	64329
#	79966
#	95525
#	106278
#	120465
#	130887
#	147278
#	166400
#
# Disc length: 2480 seconds
#
# Revision: 0
# Processed by: cddbd v1.5.2PL0 Copyright (c) Steve Scherf et al.
# Submitted via: CDex 1.51
#
DISCID=b009ae0c
DTITLE=BR6 - Gershwin to Jobim: Here to Stay
DYEAR=2007
DGENRE=Jazz
TTITLE0=Waters of March/Rhapsody in Blue
TTITLE1=Jazz 'n' Samba
TTITLE2=Someone to watch over me
TTITLE3=Water to Drink
TTITLE4=They can't take that away from me
TTITLE5=The Girl from Ipanema
TTITLE6=Fascinating Rythm
TTITLE7=Forever green
TTITLE8=They all laughed
TTITLE9=Song of the Jet
TTITLE10=Love is here to Stay
TTITLE11=Pato Preto
EXTD=YEAR: 2007
EXTT0=
EXTT1=
EXTT2=
EXTT3=
EXTT4=
EXTT5=
EXTT6=
EXTT7=
EXTT8=
EXTT9=
EXTT10=
EXTT11=
PLAYORDER=
